<?xml version="1.0" encoding="UTF-8"?> <svg xmlns="http://www.w3.org/2000/svg" width="155" height="24" viewBox="0 0 155 24" fill="none"><g clip-path="url(#clip0)"><path d="M23.69 0.680054L26.2 23.48H22.95L21.41 8.81006L13.89 23.48H12.52L7.51999 8.81006L3.44003 23.48H-0.0399475L6.51999 0.680054H7.69003L13.54 17.6801L22.17 0.680054H23.69Z" fill="white"></path><path d="M43.41 9.41003L42.7 17.5701C42.6523 18.1805 42.5722 18.788 42.4601 19.39C42.382 19.8318 42.2682 20.2666 42.12 20.6901C41.8384 21.3886 41.3759 21.9996 40.78 22.4601C39.5276 23.3915 37.9885 23.855 36.43 23.77C34.9208 23.8425 33.4351 23.3746 32.24 22.4501C31.7167 22.0096 31.296 21.4601 31.0075 20.84C30.7191 20.2198 30.5698 19.544 30.57 18.86C30.57 18.6267 30.57 18.3567 30.57 18.05C30.57 17.74 30.57 17.39 30.65 16.99L31.31 9.41003H34.5999L33.91 17.29C33.91 17.63 33.9099 17.9301 33.8499 18.1801C33.7899 18.4301 33.8499 18.6401 33.8499 18.8101C33.8499 20.2901 34.85 21.03 36.54 21.03C36.9157 21.0645 37.2945 21.017 37.6501 20.891C38.0057 20.765 38.3297 20.5634 38.5999 20.3C39.1235 19.5493 39.403 18.6553 39.4 17.74L40.14 9.41003H43.41Z" fill="white"></path><path d="M52.3 12.49L51.3 23.49H48.01L49.01 12.49H46.13L46.4 9.48999H49.28L49.86 2.97009H53.15L52.57 9.48999H55.57L55.31 12.49H52.3Z" fill="white"></path><path d="M62.7 0.680054L61.81 10.6801C62.925 9.71936 64.3387 9.17506 65.81 9.14001C67.0128 9.08487 68.194 9.47265 69.13 10.23C69.5524 10.5697 69.8944 10.9987 70.1313 11.4863C70.3682 11.9739 70.4941 12.508 70.5 13.05C70.5 13.33 70.5 13.64 70.5 14.05C70.5 14.46 70.5 14.8 70.43 15.25L69.69 23.5801H66.4L67.14 15.0701C67.1682 14.6572 67.1682 14.2429 67.14 13.8301C67.14 12.5801 66.34 11.9501 64.87 11.9501C62.7566 11.9501 61.5801 13.3766 61.3401 16.23L60.68 23.5801H57.41L59.41 0.780029L62.7 0.680054Z" fill="white"></path><path d="M88.6 9.41002L87.36 23.41H84.0601L84.2101 21.89C83.0552 23.0285 81.5111 23.6861 79.89 23.73C79.032 23.7558 78.1783 23.601 77.384 23.2754C76.5898 22.9498 75.8729 22.4608 75.28 21.8401C74.0341 20.5134 73.3434 18.76 73.35 16.9401C73.1846 14.8795 73.8346 12.8363 75.16 11.25C75.8001 10.5205 76.5939 9.94213 77.4845 9.55651C78.3751 9.17089 79.3401 8.98763 80.3101 9.02001C81.1962 8.99692 82.0767 9.16756 82.89 9.52001C83.7442 9.93372 84.5087 10.5114 85.14 11.2201L85.3 9.36998L88.6 9.41002ZM84.8201 16.02C84.8204 14.9067 84.3987 13.8347 83.64 13.02C83.2827 12.6345 82.8472 12.3298 82.3625 12.1263C81.8779 11.9228 81.3555 11.8253 80.8301 11.8401C80.2441 11.8288 79.6635 11.9538 79.1342 12.2054C78.6048 12.4571 78.1412 12.8284 77.78 13.29C76.967 14.2951 76.5634 15.5701 76.65 16.86C76.6549 17.9667 77.0639 19.0336 77.8 19.86C78.142 20.2406 78.562 20.5431 79.0314 20.7467C79.5008 20.9503 80.0085 21.0504 80.52 21.04C81.1151 21.0441 81.7034 20.913 82.2404 20.6566C82.7774 20.4002 83.249 20.0253 83.62 19.56C84.4553 18.5872 84.8849 17.3306 84.8201 16.05V16.02Z" fill="white"></path><path d="M97.0999 12.49L96.0999 23.49H92.8L93.8 12.49H91.32L91.5901 9.49004H94.06L94.49 4.91009C94.509 3.58723 94.935 2.30226 95.7101 1.23003C96.09 0.821504 96.5567 0.503465 97.0759 0.299247C97.5951 0.095029 98.1536 0.00990345 98.7101 0.0501013H101.59L101.33 2.95013H99.54C99.2867 2.93149 99.0329 2.9788 98.8033 3.08745C98.5737 3.19611 98.3761 3.36241 98.2299 3.57012C97.8993 4.27529 97.7189 5.0415 97.7 5.82012L97.37 9.49004H100.37L100.1 12.49H97.0999Z" fill="white"></path><path d="M115.32 9.41003L114.61 17.5701C114.562 18.1805 114.482 18.788 114.37 19.39C114.292 19.8318 114.178 20.2666 114.03 20.6901C113.748 21.3886 113.286 21.9996 112.69 22.4601C111.438 23.3915 109.899 23.855 108.34 23.77C106.831 23.8425 105.345 23.3746 104.15 22.4501C103.627 22.0096 103.206 21.4601 102.918 20.84C102.629 20.2198 102.48 19.544 102.48 18.86C102.48 18.6267 102.48 18.3567 102.48 18.05C102.48 17.74 102.48 17.39 102.56 16.99L103.22 9.41003H106.51L105.82 17.29C105.82 17.63 105.77 17.9301 105.76 18.1801C105.75 18.4301 105.76 18.6401 105.76 18.8101C105.81 20.2901 106.76 21.03 108.45 21.03C108.826 21.0645 109.205 21.017 109.56 20.891C109.916 20.765 110.24 20.5634 110.51 20.3C111.034 19.5493 111.313 18.6553 111.31 17.74L112.05 9.41003H115.32Z" fill="white"></path><path d="M122.56 9.41009L122.46 10.7001C123.512 9.6948 124.896 9.1111 126.35 9.06012C127.565 9.00853 128.755 9.41948 129.68 10.2101C130.103 10.6131 130.439 11.099 130.666 11.6375C130.894 12.1761 131.007 12.7557 131 13.3401C131.025 14.1979 130.995 15.0563 130.91 15.9101L130.24 23.4501H126.96L127.68 15.1901C127.68 14.8801 127.68 14.6101 127.74 14.3701V13.73C127.74 12.46 126.98 11.8201 125.61 11.8201C124.821 11.8006 124.053 12.079 123.46 12.6C123.003 13.0014 122.658 13.515 122.46 14.0901C122.329 14.4433 122.231 14.8083 122.17 15.1801C122.097 15.6134 122.037 16.1134 121.99 16.6801L121.39 23.4501H118.09L119.33 9.45013L122.56 9.41009Z" fill="white"></path><path d="M139.82 0.680054L138.56 14.89L144.28 9.44006L146.22 11.64L141.53 15.85L147.72 23.48H143.72L138.37 16.8L137.79 23.48H134.49L136.49 0.680054H139.82Z" fill="white"></path><path d="M152.68 23.81C153.796 23.81 154.7 22.9056 154.7 21.79C154.7 20.6744 153.796 19.77 152.68 19.77C151.564 19.77 150.66 20.6744 150.66 21.79C150.66 22.9056 151.564 23.81 152.68 23.81Z" fill="white"></path></g><defs><clipPath id="clip0"><rect width="155" height="24" fill="white"></rect></clipPath></defs></svg> 